<svg width="208" height="123" viewBox="0 0 208 123" fill="none" xmlns="http://www.w3.org/2000/svg">
<path d="M177 44H200C202.209 44 204 42.2091 204 40V8C204 5.79086 202.209 4 200 4H8C5.79086 4 4 5.79086 4 8V40C4 42.2091 5.79086 44 8 44H30.5" stroke="#303C42" stroke-width="8"/>
<g clip-path="url(#clip0_75_762)">
<path d="M152.667 15.7999V50.1334C152.667 70.6667 140.933 79.4665 123.333 79.4665L64.7333 79.4665C61.7333 79.4665 58.8666 79.2002 56.1999 78.6002C54.5333 78.3335 52.9333 77.8668 51.4667 77.3335C41.4667 73.6002 35.4 64.9334 35.4 50.1334V15.7999C35.4 -4.73345 47.1333 -13.5332 64.7333 -13.5332L123.333 -13.5332C138.267 -13.5332 149 -7.1999 151.867 7.26676C152.333 9.93343 152.667 12.6666 152.667 15.7999Z" stroke="#303C42" stroke-width="10" stroke-miterlimit="10" stroke-linecap="round" stroke-linejoin="round"/>
<path d="M172.674 35.8007V70.1342C172.674 90.6675 160.941 99.4673 143.341 99.4673L84.7406 99.4673C79.8073 99.4673 75.3407 98.801 71.474 97.3343C63.5407 94.401 58.1406 88.3343 56.2073 78.601C58.8739 79.201 61.7406 79.4673 64.7406 79.4673L123.341 79.4673C140.941 79.4673 152.674 70.6675 152.674 50.1342V15.8007C152.674 12.6674 152.407 9.86758 151.874 7.26758C164.541 9.93424 172.674 18.8674 172.674 35.8007Z" stroke="#303C42" stroke-width="10" stroke-miterlimit="10" stroke-linecap="round" stroke-linejoin="round"/>
<path d="M93.9896 50.5991C103.71 50.5991 111.59 42.7192 111.59 32.999C111.59 23.2788 103.71 15.3989 93.9896 15.3989C84.2694 15.3989 76.3895 23.2788 76.3895 32.999C76.3895 42.7192 84.2694 50.5991 93.9896 50.5991Z" stroke="#303C42" stroke-width="10" stroke-miterlimit="10" stroke-linecap="round" stroke-linejoin="round"/>
<path d="M55.8667 18.333L55.8667 47.6665" stroke="#303C42" stroke-width="10" stroke-miterlimit="10" stroke-linecap="round" stroke-linejoin="round"/>
<path d="M132.145 18.3354V47.6689" stroke="#303C42" stroke-width="10" stroke-miterlimit="10" stroke-linecap="round" stroke-linejoin="round"/>
</g>
<defs>
<clipPath id="clip0_75_762">
<rect width="160" height="116" fill="white" transform="translate(24 7)"/>
</clipPath>
</defs>
</svg>
