<svg width="120" height="121" viewBox="0 0 120 121" fill="none" xmlns="http://www.w3.org/2000/svg">
<path d="M96.4998 40.0999V65.85C96.4998 81.25 87.6998 87.8499 74.4998 87.8499H30.5498C28.2998 87.8499 26.1498 87.6501 24.1498 87.2001C22.8998 87.0001 21.6998 86.6501 20.5998 86.2501C13.0998 83.4501 8.5498 76.95 8.5498 65.85V40.0999C8.5498 24.6999 17.3498 18.1001 30.5498 18.1001H74.4998C85.6998 18.1001 93.7498 22.8501 95.8998 33.7001C96.2498 35.7001 96.4998 37.7499 96.4998 40.0999Z" stroke="white" stroke-width="8" stroke-miterlimit="10" stroke-linecap="round" stroke-linejoin="round"/>
<path d="M111.505 55.1005V80.8506C111.505 96.2506 102.705 102.85 89.5053 102.85H45.5553C41.8553 102.85 38.5053 102.351 35.6053 101.251C29.6553 99.0507 25.6053 94.5007 24.1553 87.2007C26.1553 87.6507 28.3053 87.8505 30.5553 87.8505H74.5053C87.7053 87.8505 96.5053 81.2506 96.5053 65.8506V40.1005C96.5053 37.7505 96.3053 35.6507 95.9053 33.7007C105.405 35.7007 111.505 42.4005 111.505 55.1005Z" stroke="white" stroke-width="8" stroke-miterlimit="10" stroke-linecap="round" stroke-linejoin="round"/>
<path d="M52.4921 66.1995C59.7822 66.1995 65.6921 60.2895 65.6921 52.9994C65.6921 45.7092 59.7822 39.7993 52.4921 39.7993C45.2019 39.7993 39.292 45.7092 39.292 52.9994C39.292 60.2895 45.2019 66.1995 52.4921 66.1995Z" stroke="white" stroke-width="8" stroke-miterlimit="10" stroke-linecap="round" stroke-linejoin="round"/>
<path d="M23.8999 41.9999V64.0001" stroke="white" stroke-width="8" stroke-miterlimit="10" stroke-linecap="round" stroke-linejoin="round"/>
<path d="M81.1084 42.0015V64.0016" stroke="white" stroke-width="8" stroke-miterlimit="10" stroke-linecap="round" stroke-linejoin="round"/>
</svg>
