<svg width="60" height="60" viewBox="0 0 60 60" fill="none" xmlns="http://www.w3.org/2000/svg">
<path d="M48.25 19.7997V32.6748C48.25 40.3748 43.85 43.6747 37.25 43.6747H15.2749C14.1499 43.6747 13.075 43.5748 12.075 43.3498C11.45 43.2498 10.85 43.0748 10.3 42.8748C6.54997 41.4748 4.27496 38.2248 4.27496 32.6748V19.7997C4.27496 12.0997 8.67495 8.7998 15.2749 8.7998H37.25C42.85 8.7998 46.875 11.1748 47.95 16.5998C48.125 17.5998 48.25 18.6247 48.25 19.7997Z" stroke="#292D32" stroke-width="8" stroke-miterlimit="10" stroke-linecap="round" stroke-linejoin="round"/>
<path d="M55.7527 27.3V40.1751C55.7527 47.8751 51.3527 51.175 44.7527 51.175H22.7777C20.9277 51.175 19.2527 50.9251 17.8027 50.3751C14.8277 49.2751 12.8027 47.0001 12.0777 43.3501C13.0777 43.5751 14.1527 43.675 15.2777 43.675H37.2527C43.8527 43.675 48.2527 40.3751 48.2527 32.6751V19.8C48.2527 18.625 48.1527 17.5751 47.9527 16.6001C52.7027 17.6001 55.7527 20.95 55.7527 27.3Z" stroke="#292D32" stroke-width="8" stroke-miterlimit="10" stroke-linecap="round" stroke-linejoin="round"/>
<path d="M26.2461 32.8495C29.8912 32.8495 32.8461 29.8945 32.8461 26.2495C32.8461 22.6044 29.8912 19.6494 26.2461 19.6494C22.601 19.6494 19.6461 22.6044 19.6461 26.2495C19.6461 29.8945 22.601 32.8495 26.2461 32.8495Z" stroke="#292D32" stroke-width="8" stroke-miterlimit="10" stroke-linecap="round" stroke-linejoin="round"/>
<path d="M11.95 20.7495V31.7496" stroke="#292D32" stroke-width="8" stroke-miterlimit="10" stroke-linecap="round" stroke-linejoin="round"/>
<path d="M40.5543 20.7505V31.7505" stroke="#292D32" stroke-width="8" stroke-miterlimit="10" stroke-linecap="round" stroke-linejoin="round"/>
</svg>
