<svg width="120" height="121" viewBox="0 0 120 121" fill="none" xmlns="http://www.w3.org/2000/svg">
<path d="M12 26.6201L26.532 52.5951V68.4391L12.017 94.3631L12 26.6201Z" fill="white"/>
<path d="M67.7969 43.1434L81.4139 34.7974L109.282 34.7714L67.7969 60.1854V43.1434Z" fill="white"/>
<path d="M67.7199 26.467L67.7969 60.8569L53.231 51.9069V0.5L67.7209 26.467H67.7199Z" fill="white"/>
<path d="M109.282 34.771L81.4129 34.797L67.7199 26.467L53.231 0.5L109.281 34.771H109.282Z" fill="white"/>
<path d="M67.7969 94.5069V77.8219L53.231 69.0419L53.239 120.5L67.7969 94.5069Z" fill="white"/>
<path d="M81.3799 86.2371L26.531 52.5951L12 26.6201L109.223 86.2031L81.3789 86.2371H81.3799Z" fill="white"/>
<path d="M53.2402 120.5L67.7962 94.507L81.3792 86.237L109.222 86.203L53.2402 120.5Z" fill="white"/>
<path d="M12.0171 94.3625L53.35 69.0425L39.4541 60.5165L26.5321 68.4385L12.0171 94.3625Z" fill="white"/>
</svg>
